<svg width="120" height="42" viewBox="0 0 120 42" fill="none" xmlns="http://www.w3.org/2000/svg">
<path d="M110.135 0.500011H9.53468C9.16798 0.500011 8.80568 0.500011 8.43995 0.502061C8.1338 0.504111 7.83009 0.510066 7.521 0.515079C6.84951 0.523178 6.17961 0.583729 5.5171 0.696206C4.85552 0.811132 4.21467 1.0278 3.61622 1.33888C3.0185 1.65259 2.47234 2.06023 1.99757 2.54701C1.5203 3.03241 1.12246 3.59348 0.81935 4.20863C0.5154 4.82255 0.30464 5.48042 0.19435 6.15953C0.0830109 6.83778 0.0230984 7.52384 0.01515 8.21158C0.00587 8.52584 0.00489 8.84115 0 9.15546V32.8476C0.00489 33.1658 0.00587 33.4742 0.01515 33.7925C0.0231008 34.4802 0.0830134 35.1663 0.19435 35.8445C0.304336 36.524 0.515108 37.1822 0.81935 37.7964C1.12233 38.4095 1.52022 38.9683 1.99757 39.451C2.47054 39.94 3.01705 40.3479 3.61622 40.6592C4.21467 40.9711 4.85545 41.1891 5.5171 41.3058C6.17972 41.4174 6.84956 41.4779 7.521 41.487C7.83009 41.494 8.1338 41.498 8.43995 41.498C8.80567 41.5 9.168 41.5 9.53468 41.5H110.135C110.494 41.5 110.859 41.5 111.219 41.498C111.523 41.498 111.836 41.494 112.141 41.487C112.811 41.4784 113.479 41.4178 114.141 41.3058C114.804 41.1883 115.448 40.9704 116.049 40.6592C116.647 40.3477 117.193 39.9398 117.666 39.451C118.142 38.9664 118.541 38.4081 118.848 37.7964C119.15 37.1818 119.358 36.5236 119.467 35.8445C119.578 35.1662 119.64 34.4803 119.652 33.7925C119.656 33.4742 119.656 33.1658 119.656 32.8476C119.664 32.4752 119.664 32.1049 119.664 31.7264V10.2745C119.664 9.89918 119.664 9.52682 119.656 9.15546C119.656 8.84115 119.656 8.52584 119.652 8.21154C119.64 7.52374 119.578 6.83783 119.467 6.15949C119.358 5.48077 119.149 4.82295 118.848 4.20858C118.23 2.97559 117.252 1.97194 116.049 1.33879C115.448 1.02847 114.804 0.811858 114.141 0.696114C113.48 0.583142 112.811 0.522569 112.141 0.514935C111.836 0.509933 111.523 0.503927 111.219 0.501928C110.859 0.499878 110.494 0.499878 110.135 0.499878V0.500011Z" fill="#A6A6A6"/>
<path d="M8.44484 40.6031C8.14016 40.6031 7.84284 40.5991 7.54055 40.5922C6.91433 40.5838 6.28957 40.5279 5.67141 40.425C5.095 40.3232 4.53661 40.134 4.01467 39.8634C3.49751 39.5951 3.02582 39.2432 2.61767 38.8214C2.20361 38.4045 1.85888 37.921 1.59716 37.39C1.33255 36.8555 1.14942 36.2827 1.05416 35.6913C0.951281 35.056 0.895621 34.4135 0.887656 33.7695C0.881316 33.5533 0.873016 32.8335 0.873016 32.8335V9.15546C0.873016 9.15546 0.881856 8.44676 0.887706 8.23855C0.895332 7.59555 0.950669 6.95408 1.05324 6.31968C1.14868 5.72674 1.33194 5.15222 1.5967 4.61603C1.85746 4.0854 2.20027 3.60151 2.61184 3.18313C3.02294 2.76077 3.49614 2.40713 4.01418 2.1351C4.53492 1.8654 5.09225 1.67746 5.6675 1.57756C6.28769 1.47359 6.91462 1.41738 7.54301 1.4094L8.44533 1.39688H111.214L112.127 1.4099C112.75 1.41748 113.371 1.47319 113.985 1.57655C114.566 1.67771 115.13 1.86696 115.656 2.1381C116.694 2.68632 117.539 3.55365 118.071 4.61853C118.332 5.15102 118.512 5.72085 118.606 6.30867C118.71 6.94827 118.768 7.59479 118.78 8.24306C118.783 8.53334 118.783 8.84515 118.783 9.15546C118.791 9.53983 118.791 9.90568 118.791 10.2745V31.7264C118.791 32.0988 118.791 32.4622 118.783 32.8285C118.783 33.1618 118.783 33.4672 118.779 33.7815C118.768 34.4182 118.71 35.0531 118.608 35.6813C118.515 36.2769 118.333 36.8542 118.068 37.393C117.805 37.9183 117.462 38.3976 117.053 38.8134C116.644 39.2375 116.172 39.5914 115.653 39.8614C115.128 40.1341 114.566 40.3241 113.985 40.425C113.367 40.5285 112.742 40.5844 112.116 40.5922C111.823 40.5991 111.517 40.6031 111.219 40.6031L110.135 40.6052L8.44484 40.6031Z" fill="black"/>
<path d="M24.7689 21.3082C24.7796 20.4527 25.0013 19.6139 25.4134 18.8698C25.8254 18.1257 26.4143 17.5005 27.1254 17.0524C26.6737 16.3911 26.0777 15.8469 25.3849 15.4629C24.6921 15.079 23.9215 14.866 23.1343 14.8407C21.455 14.6601 19.8271 15.8707 18.9714 15.8707C18.0991 15.8707 16.7816 14.8587 15.3629 14.8886C14.4452 14.919 13.5509 15.1925 12.767 15.6825C11.9831 16.1725 11.3364 16.8623 10.89 17.6847C8.95595 21.1168 10.3985 26.1609 12.2511 28.9351C13.178 30.2936 14.2613 31.8111 15.6788 31.7573C17.0658 31.6983 17.5839 30.8507 19.2582 30.8507C20.9169 30.8507 21.403 31.7573 22.8492 31.7231C24.3376 31.6983 25.2753 30.3585 26.1697 28.9872C26.8357 28.0192 27.3481 26.9494 27.6881 25.8174C26.8234 25.4425 26.0855 24.815 25.5664 24.0132C25.0472 23.2113 24.7699 22.2706 24.7689 21.3082Z" fill="white"/>
<path d="M42.3022 28.3182H37.5688L36.4321 31.7585H34.4272L38.9106 19.0301H40.9936L45.477 31.7585H43.438L42.3022 28.3182ZM38.0591 26.7306H41.8111L39.9615 21.1472H39.9097L38.0591 26.7306Z" fill="white"/>
<path d="M55.1597 27.119C55.1597 30.0029 53.6538 31.8557 51.3813 31.8557C50.8057 31.8865 50.2332 31.7506 49.7294 31.4635C49.2256 31.1763 48.8109 30.7496 48.5327 30.2321H48.4897V34.8285H46.6313V22.4785H48.4302V24.022H48.4644C48.7553 23.507 49.177 23.0824 49.6847 22.7936C50.1923 22.5047 50.7668 22.3622 51.3472 22.3814C53.645 22.3814 55.1597 24.2432 55.1597 27.119ZM53.2495 27.119C53.2495 25.2402 52.3022 24.005 50.8569 24.005C49.437 24.005 48.4819 25.2662 48.4819 27.119C48.4819 28.9889 49.437 30.2411 50.8569 30.2411C52.3022 30.2411 53.2495 29.0149 53.2495 27.119Z" fill="white"/>
<path d="M65.1245 27.119C65.1245 30.0028 63.6186 31.8556 61.3462 31.8556C60.7705 31.8865 60.198 31.7506 59.6942 31.4635C59.1904 31.1763 58.7757 30.7496 58.4976 30.232H58.4546V34.8285H56.5962V22.4785H58.395V24.022H58.4292C58.7201 23.507 59.1418 23.0824 59.6495 22.7935C60.1571 22.5047 60.7317 22.3622 61.312 22.3814C63.6099 22.3814 65.1245 24.2432 65.1245 27.119ZM63.2143 27.119C63.2143 25.2402 62.2671 24.005 60.8218 24.005C59.4018 24.005 58.4468 25.2662 58.4468 27.119C58.4468 28.9889 59.4018 30.2411 60.8218 30.2411C62.2671 30.2411 63.2144 29.0149 63.2144 27.119H63.2143Z" fill="white"/>
<path d="M71.7105 28.2121C71.8482 29.4743 73.0445 30.3031 74.6792 30.3031C76.2456 30.3031 77.3726 29.4743 77.3726 28.3361C77.3726 27.3482 76.6929 26.7566 75.0835 26.3512L73.4741 25.9538C71.1939 25.3893 70.1353 24.2962 70.1353 22.5225C70.1353 20.3263 72.0025 18.8178 74.6538 18.8178C77.2778 18.8178 79.0767 20.3263 79.1372 22.5225H77.2612C77.1489 21.2522 76.1245 20.4855 74.6274 20.4855C73.1304 20.4855 72.1059 21.2612 72.1059 22.3903C72.1059 23.2902 72.7602 23.8197 74.3608 24.2251L75.729 24.5694C78.2768 25.187 79.3354 26.2361 79.3354 28.0979C79.3354 30.4792 77.4848 31.9706 74.5415 31.9706C71.7876 31.9706 69.9282 30.5142 69.8081 28.212L71.7105 28.2121Z" fill="white"/>
<path d="M83.3462 20.2823V22.4785H85.0679V23.9869H83.3462V29.1029C83.3462 29.8977 83.6909 30.2681 84.4477 30.2681C84.6521 30.2644 84.8562 30.2497 85.0591 30.224V31.7234C84.7188 31.7886 84.3729 31.8181 84.0268 31.8115C82.1938 31.8115 81.479 31.1058 81.479 29.3061V23.9869H80.1626V22.4785H81.479V20.2823H83.3462Z" fill="white"/>
<path d="M86.065 27.119C86.065 24.1991 87.7427 22.3643 90.3589 22.3643C92.9839 22.3643 94.6538 24.1991 94.6538 27.119C94.6538 30.0468 92.9927 31.8736 90.3589 31.8736C87.7261 31.8736 86.065 30.0468 86.065 27.119ZM92.7603 27.119C92.7603 25.116 91.8648 23.9339 90.3589 23.9339C88.853 23.9339 87.9585 25.125 87.9585 27.119C87.9585 29.1299 88.853 30.3031 90.3589 30.3031C91.8648 30.3031 92.7602 29.1299 92.7602 27.119H92.7603Z" fill="white"/>
<path d="M96.186 22.4785H97.9585V24.058H98.0015C98.1214 23.5647 98.4034 23.1287 98.8 22.8234C99.1966 22.5181 99.6836 22.362 100.179 22.3814C100.393 22.3806 100.607 22.4044 100.816 22.4524V24.2342C100.546 24.1495 100.264 24.1106 99.981 24.1191C99.711 24.1079 99.4418 24.1566 99.192 24.2621C98.9421 24.3676 98.7175 24.5272 98.5335 24.73C98.3496 24.9329 98.2106 25.1741 98.1262 25.4372C98.0417 25.7003 98.0139 25.979 98.0444 26.2542V31.7585H96.186L96.186 22.4785Z" fill="white"/>
<path d="M109.384 29.0329C109.134 30.7175 107.534 31.8736 105.486 31.8736C102.852 31.8736 101.217 30.0649 101.217 27.163C101.217 24.2522 102.861 22.3643 105.408 22.3643C107.913 22.3643 109.488 24.1281 109.488 26.9418V27.5945H103.093V27.7096C103.064 28.0511 103.105 28.3952 103.216 28.7189C103.326 29.0426 103.502 29.3386 103.732 29.5872C103.963 29.8358 104.242 30.0314 104.552 30.1608C104.861 30.2903 105.195 30.3507 105.529 30.3381C105.968 30.3803 106.409 30.276 106.785 30.0409C107.162 29.8057 107.455 29.4522 107.62 29.0328L109.384 29.0329ZM103.102 26.2632H107.628C107.645 25.9561 107.6 25.6488 107.495 25.3605C107.39 25.0723 107.229 24.8093 107.02 24.5882C106.812 24.367 106.561 24.1924 106.283 24.0753C106.006 23.9583 105.708 23.9012 105.408 23.9079C105.105 23.906 104.805 23.9656 104.525 24.0832C104.245 24.2008 103.99 24.3741 103.776 24.5931C103.562 24.8121 103.392 25.0724 103.276 25.359C103.16 25.6457 103.101 25.953 103.102 26.2632V26.2632Z" fill="white"/>
<path d="M36.7383 12.0348H37.5362C37.6735 12.0523 37.8129 12.0405 37.9456 12C38.0782 11.9596 38.2013 11.8915 38.307 11.7999C38.4127 11.7083 38.4987 11.5952 38.5597 11.4678C38.6206 11.3405 38.6552 11.2015 38.6612 11.0598C38.6612 10.4958 38.2471 10.1314 37.5449 10.1314C37.4042 10.1113 37.261 10.1202 37.1237 10.1577C36.9864 10.1953 36.8579 10.2606 36.7456 10.3499C36.6334 10.4392 36.5398 10.5506 36.4702 10.6776C36.4007 10.8046 36.3567 10.9446 36.3408 11.0893H35.4648C35.4799 10.8266 35.5476 10.5699 35.6637 10.3352C35.7797 10.1004 35.9417 9.89272 36.1395 9.72492C36.3373 9.55712 36.5666 9.43285 36.8133 9.35985C37.06 9.28685 37.3186 9.26668 37.5732 9.30059C38.748 9.30059 39.5752 9.97475 39.5752 10.9452C39.578 11.2703 39.4719 11.5865 39.2746 11.8411C39.0773 12.0957 38.8008 12.2732 38.4912 12.3441V12.4161C38.8582 12.4328 39.2039 12.5978 39.4526 12.8749C39.7013 13.152 39.8328 13.5188 39.8184 13.8951C39.7912 14.1656 39.7117 14.4278 39.5844 14.6663C39.4571 14.9049 39.2846 15.115 39.077 15.2844C38.8695 15.4537 38.631 15.5789 38.3756 15.6525C38.1203 15.7262 37.8531 15.7469 37.5899 15.7134C37.3261 15.7502 37.0577 15.7323 36.8008 15.6606C36.5439 15.5888 36.3037 15.4649 36.0946 15.296C35.8854 15.1271 35.7116 14.9168 35.5835 14.6775C35.4553 14.4383 35.3755 14.1751 35.3487 13.9036H36.2383C36.292 14.4887 36.8164 14.8661 37.5899 14.8661C38.3633 14.8661 38.8682 14.4422 38.8682 13.8446C38.8682 13.2385 38.3926 12.8651 37.5616 12.8651H36.7383V12.0348Z" fill="white"/>
<path d="M40.8291 14.2599C40.8291 13.4291 41.4336 12.9501 42.5039 12.8821L43.7237 12.81V12.4116C43.7237 11.9241 43.4102 11.6489 42.8018 11.6489C42.3057 11.6489 41.9629 11.8355 41.8633 12.1619H41.003C41.0938 11.3691 41.8223 10.8606 42.8438 10.8606C43.9727 10.8606 44.6094 11.4366 44.6094 12.4116V15.5652H43.753V14.9166H43.6827C43.5399 15.1492 43.3395 15.3389 43.1019 15.4662C42.8643 15.5935 42.598 15.6539 42.3301 15.6412C42.1411 15.6614 41.95 15.6407 41.7693 15.5805C41.5885 15.5204 41.422 15.4221 41.2806 15.2919C41.1392 15.1618 41.026 15.0027 40.9482 14.8249C40.8704 14.6472 40.8299 14.4547 40.8291 14.2599ZM43.7237 13.8655V13.4796L42.624 13.5517C42.0039 13.5942 41.7226 13.8105 41.7226 14.2174C41.7226 14.6328 42.0742 14.8745 42.5576 14.8745C42.6993 14.8892 42.8424 14.8745 42.9784 14.8314C43.1144 14.7883 43.2406 14.7175 43.3493 14.6234C43.4581 14.5292 43.5473 14.4136 43.6116 14.2834C43.6759 14.1532 43.714 14.0111 43.7237 13.8655Z" fill="white"/>
<path d="M46.9678 11.7165V15.5652H46.0791V10.9497H49.044V11.7164L46.9678 11.7165Z" fill="white"/>
<path d="M54.4297 13.2554C54.4297 14.7219 53.7061 15.6413 52.5694 15.6413C52.2903 15.6608 52.0117 15.5982 51.7662 15.4609C51.5207 15.3235 51.3185 15.1171 51.1836 14.866H51.1133V17.0997H50.2246V10.9497H51.0801V11.7125H51.1465C51.2839 11.4526 51.4886 11.2366 51.7381 11.0885C51.9877 10.9404 52.2723 10.8659 52.5606 10.8731C53.7061 10.8731 54.4297 11.7885 54.4297 13.2554ZM53.5157 13.2554C53.5157 12.2805 53.0655 11.6914 52.3125 11.6914C51.5645 11.6914 51.0967 12.293 51.0967 13.2594C51.0967 14.2214 51.5645 14.8235 52.3086 14.8235C53.0655 14.8235 53.5157 14.2344 53.5157 13.2554Z" fill="white"/>
<path d="M55.6133 17.2183V16.4341C55.7095 16.4466 55.8064 16.4523 55.9033 16.4511C56.0927 16.4655 56.2805 16.4077 56.4308 16.2888C56.5811 16.1699 56.6833 15.9983 56.7178 15.8069L56.7842 15.5822L55.1543 10.9497H56.1221L57.251 14.6158H57.3213L58.4463 10.9497H59.3887L57.71 15.7559C57.3252 16.879 56.8995 17.2394 55.9815 17.2394C55.9073 17.2393 55.6963 17.2308 55.6133 17.2183Z" fill="white"/>
<path d="M60.0811 14.2554H60.9658C61.0527 14.6623 61.4248 14.8745 61.9453 14.8745C62.5371 14.8745 62.9004 14.6073 62.9004 14.1919C62.9004 13.7469 62.5742 13.5347 61.9453 13.5347H61.2715V12.827H61.9336C62.4707 12.827 62.7441 12.6153 62.7441 12.2295C62.7441 11.8906 62.4795 11.6319 61.9336 11.6319C61.4365 11.6319 61.0732 11.8481 61.0156 12.2125H60.1592C60.2232 11.7938 60.445 11.4176 60.7768 11.1648C61.1086 10.912 61.524 10.8028 61.9336 10.8606C63.0039 10.8606 63.6162 11.3566 63.6162 12.1364C63.6212 12.3535 63.5533 12.5658 63.4239 12.7378C63.2945 12.9098 63.1114 13.0311 62.9053 13.0813V13.1534C63.1507 13.1858 63.376 13.3095 63.5384 13.5009C63.7007 13.6924 63.7889 13.9382 63.7861 14.1919C63.7861 15.0693 63.0576 15.6498 61.9453 15.6498C60.9619 15.6498 60.1631 15.1878 60.0811 14.2554Z" fill="white"/>
<path d="M65.0659 15.5652V10.9497H65.9468V14.1243H66.0171L68.0923 10.9497H68.9732V15.5652H68.0923V12.3736H68.0259L65.9468 15.5652L65.0659 15.5652Z" fill="white"/>
<path d="M73.8257 11.7164H72.4077V15.5652H71.518V11.7164H70.1V10.9497H73.8257V11.7164Z" fill="white"/>
<path d="M78.6128 14.319C78.4917 14.7408 78.2299 15.1056 77.8731 15.3497C77.5163 15.5938 77.0871 15.7016 76.6606 15.6543C76.364 15.6623 76.0692 15.6041 75.7967 15.4836C75.5242 15.3632 75.2805 15.1834 75.0826 14.9567C74.8847 14.73 74.7373 14.4619 74.6506 14.171C74.5639 13.8801 74.54 13.5733 74.5806 13.272C74.5411 12.9697 74.5654 12.6623 74.6519 12.3705C74.7384 12.0787 74.885 11.8094 75.0819 11.5807C75.2787 11.3521 75.5212 11.1695 75.7929 11.0452C76.0646 10.921 76.3592 10.858 76.6567 10.8606C77.9097 10.8606 78.6665 11.738 78.6665 13.1874V13.5052H75.4868V13.5563C75.4727 13.7257 75.4934 13.8963 75.5475 14.057C75.6015 14.2177 75.6878 14.3651 75.8007 14.4896C75.9137 14.6142 76.0508 14.7131 76.2033 14.7801C76.3557 14.8471 76.5202 14.8806 76.686 14.8785C76.8985 14.9046 77.1137 14.8653 77.3042 14.7656C77.4948 14.666 77.6522 14.5105 77.7564 14.319L78.6128 14.319ZM75.4868 12.8316H77.7602C77.7715 12.6767 77.751 12.5212 77.7001 12.375C77.6492 12.2288 77.569 12.0951 77.4648 11.9825C77.3605 11.8699 77.2344 11.7809 77.0945 11.7212C76.9547 11.6615 76.8043 11.6325 76.6528 11.6359C76.4991 11.6338 76.3465 11.6632 76.204 11.7226C76.0616 11.7819 75.9322 11.8699 75.8235 11.9814C75.7148 12.0928 75.629 12.2255 75.5712 12.3715C75.5134 12.5176 75.4847 12.674 75.4868 12.8316H75.4868Z" fill="white"/>
<path d="M82.3804 10.9497H84.4107C85.2915 10.9497 85.8081 11.4072 85.8081 12.1233C85.8095 12.3506 85.7347 12.5714 85.5962 12.7489C85.4577 12.9264 85.264 13.0497 85.0474 13.0983V13.1703C85.3104 13.1874 85.5569 13.3073 85.7361 13.5053C85.9153 13.7033 86.0134 13.9643 86.0103 14.2344C86.0103 15.0397 85.4195 15.5652 84.4312 15.5652H82.3804V10.9497ZM83.2613 11.6489V12.844H84.1421C84.6792 12.844 84.9361 12.6323 84.9361 12.242C84.9361 11.8821 84.7124 11.6489 84.2408 11.6489L83.2613 11.6489ZM83.2613 13.5137V14.866H84.315C84.8404 14.866 85.1217 14.6283 85.1217 14.1919C85.1217 13.7299 84.8033 13.5137 84.2037 13.5137L83.2613 13.5137Z" fill="white"/>
</svg>
