<svg width="135" height="40" viewBox="0 0 135 40" fill="none" xmlns="http://www.w3.org/2000/svg">
<path d="M130 40H5C2.25 40 0 37.75 0 35V5C0 2.25 2.25 0 5 0H130C132.75 0 135 2.25 135 5V35C135 37.75 132.75 40 130 40Z" fill="black"/>
<path d="M130 0.8C132.32 0.8 134.2 2.68 134.2 5V35C134.2 37.32 132.32 39.2 130 39.2H5C2.68 39.2 0.8 37.32 0.8 35V5C0.8 2.68 2.68 0.8 5 0.8H130ZM130 0H5C2.25 0 0 2.25 0 5V35C0 37.75 2.25 40 5 40H130C132.75 40 135 37.75 135 35V5C135 2.25 132.75 0 130 0Z" fill="#A6A6A6"/>
<path d="M68.14 21.75C65.79 21.75 63.87 23.54 63.87 26C63.87 28.45 65.79 30.25 68.14 30.25C70.49 30.25 72.41 28.45 72.41 26C72.41 23.54 70.49 21.75 68.14 21.75ZM68.14 28.58C66.85 28.58 65.74 27.52 65.74 26C65.74 24.47 66.85 23.42 68.14 23.42C69.43 23.42 70.54 24.47 70.54 26C70.54 27.52 69.42 28.58 68.14 28.58ZM58.82 21.75C56.47 21.75 54.55 23.54 54.55 26C54.55 28.45 56.47 30.25 58.82 30.25C61.17 30.25 63.09 28.45 63.09 26C63.09 23.54 61.17 21.75 58.82 21.75ZM58.82 28.58C57.53 28.58 56.42 27.52 56.42 26C56.42 24.47 57.53 23.42 58.82 23.42C60.11 23.42 61.22 24.47 61.22 26C61.22 27.52 60.11 28.58 58.82 28.58ZM47.74 23.06V24.86H52.06C51.93 25.87 51.59 26.62 51.08 27.13C50.45 27.76 49.47 28.45 47.75 28.45C45.09 28.45 43.01 26.31 43.01 23.65C43.01 20.99 45.09 18.85 47.75 18.85C49.18 18.85 50.23 19.41 51 20.14L52.27 18.87C51.19 17.84 49.76 17.05 47.74 17.05C44.1 17.05 41.04 20.01 41.04 23.66C41.04 27.3 44.1 30.27 47.74 30.27C49.71 30.27 51.19 29.63 52.35 28.42C53.54 27.23 53.91 25.55 53.91 24.2C53.91 23.78 53.88 23.39 53.81 23.07H47.74V23.06ZM93.05 24.46C92.7 23.51 91.62 21.75 89.41 21.75C87.22 21.75 85.4 23.47 85.4 26C85.4 28.38 87.2 30.25 89.62 30.25C91.57 30.25 92.7 29.06 93.16 28.37L91.71 27.4C91.23 28.11 90.57 28.58 89.62 28.58C88.67 28.58 87.99 28.14 87.56 27.29L93.25 24.94L93.05 24.46ZM87.25 25.88C87.2 24.24 88.52 23.4 89.47 23.4C90.21 23.4 90.84 23.77 91.05 24.3L87.25 25.88ZM82.63 30H84.5V17.5H82.63V30ZM79.57 22.7H79.5C79.08 22.2 78.28 21.75 77.26 21.75C75.13 21.75 73.18 23.62 73.18 26.02C73.18 28.4 75.13 30.26 77.26 30.26C78.27 30.26 79.08 29.81 79.5 29.29H79.56V29.9C79.56 31.53 78.69 32.4 77.29 32.4C76.15 32.4 75.44 31.58 75.15 30.89L73.52 31.57C73.99 32.7 75.23 34.08 77.29 34.08C79.48 34.08 81.33 32.79 81.33 29.65V22.01H79.56V22.7H79.57ZM77.42 28.58C76.13 28.58 75.05 27.5 75.05 26.02C75.05 24.52 76.13 23.43 77.42 23.43C78.69 23.43 79.69 24.53 79.69 26.02C79.7 27.5 78.7 28.58 77.42 28.58ZM101.81 17.5H97.34V30H99.21V25.26H101.82C103.89 25.26 105.92 23.76 105.92 21.38C105.92 19 103.87 17.5 101.81 17.5ZM101.85 23.52H99.2V19.23H101.85C103.25 19.23 104.04 20.39 104.04 21.37C104.04 22.35 103.25 23.52 101.85 23.52ZM113.39 21.73C112.04 21.73 110.64 22.33 110.06 23.64L111.72 24.33C112.07 23.64 112.73 23.41 113.42 23.41C114.38 23.41 115.37 23.99 115.38 25.02V25.15C115.04 24.96 114.32 24.67 113.43 24.67C111.64 24.67 109.83 25.65 109.83 27.48C109.83 29.15 111.29 30.23 112.93 30.23C114.18 30.23 114.88 29.67 115.31 29.01H115.37V29.98H117.17V25.19C117.18 22.97 115.52 21.73 113.39 21.73ZM113.16 28.58C112.55 28.58 111.7 28.27 111.7 27.52C111.7 26.56 112.76 26.19 113.68 26.19C114.5 26.19 114.89 26.37 115.38 26.61C115.24 27.76 114.24 28.58 113.16 28.58ZM123.74 22L121.6 27.42H121.54L119.32 22H117.31L120.64 29.58L118.74 33.79H120.69L125.82 22H123.74ZM106.94 30H108.81V17.5H106.94V30Z" fill="white"/>
<path d="M10.44 7.53997C10.15 7.84997 9.98001 8.32997 9.98001 8.93997V31.06C9.98001 31.68 10.15 32.16 10.44 32.46L10.51 32.53L22.9 20.15V20V19.85L10.51 7.46997L10.44 7.53997Z" fill="url(#paint0_linear)"/>
<path d="M27.03 24.28L22.9 20.15V20V19.85L27.03 15.72L27.12 15.77L32.01 18.55C33.41 19.34 33.41 20.64 32.01 21.44L27.12 24.22L27.03 24.28Z" fill="url(#paint1_linear)"/>
<path d="M27.12 24.22L22.9 20L10.44 32.46C10.9 32.95 11.66 33.01 12.52 32.52L27.12 24.22Z" fill="url(#paint2_linear)"/>
<path d="M27.12 15.78L12.51 7.47999C11.65 6.98999 10.89 7.04999 10.43 7.53999L22.9 20L27.12 15.78Z" fill="url(#paint3_linear)"/>
<path d="M42.11 14.27H41.37V12.26H41.96C42.48 11.81 42.73 11.05 42.72 9.96V7H46.73V12.26H47.4V14.27H46.66V13H42.11V14.27ZM43.5 9.97C43.51 10.92 43.32 11.68 42.93 12.27H45.96V7.74H43.5V9.97Z" fill="white" stroke="white" stroke-width="0.2" stroke-miterlimit="10"/>
<path d="M53.41 12.22C52.82 12.83 52.09 13.13 51.21 13.13C50.33 13.13 49.6 12.83 49.01 12.22C48.42 11.61 48.13 10.87 48.13 9.99999C48.13 9.12999 48.42 8.37999 49.01 7.77999C49.6 7.16999 50.33 6.87 51.21 6.87C52.08 6.87 52.81 7.16999 53.41 7.77999C54 8.38999 54.3 9.12999 54.3 9.99999C54.3 10.88 54 11.62 53.41 12.22ZM49.58 11.72C50.02 12.17 50.57 12.39 51.21 12.39C51.85 12.39 52.4 12.17 52.84 11.72C53.28 11.27 53.51 10.7 53.51 9.99999C53.51 9.29999 53.29 8.73 52.84 8.27999C52.4 7.82999 51.85 7.60999 51.21 7.60999C50.57 7.60999 50.02 7.82999 49.58 8.27999C49.14 8.73 48.91 9.29999 48.91 9.99999C48.91 10.7 49.14 11.27 49.58 11.72Z" fill="white" stroke="white" stroke-width="0.2" stroke-miterlimit="10"/>
<path d="M58.18 13.13C57.3 13.13 56.56 12.83 55.96 12.23C55.36 11.63 55.06 10.89 55.06 9.99001C55.06 9.09001 55.36 8.35001 55.96 7.75001C56.56 7.15001 57.3 6.85001 58.18 6.85001C59.08 6.85001 59.82 7.18001 60.38 7.83001L59.84 8.35001C59.43 7.84001 58.88 7.59001 58.17 7.59001C57.52 7.59001 56.96 7.81001 56.51 8.25001C56.06 8.69001 55.84 9.27001 55.84 9.98001C55.84 10.69 56.06 11.27 56.51 11.71C56.96 12.15 57.51 12.37 58.17 12.37C58.89 12.37 59.5 12.08 60.01 11.5L60.55 12.04C60.28 12.37 59.93 12.63 59.52 12.82C59.11 13.04 58.66 13.13 58.18 13.13Z" fill="white" stroke="white" stroke-width="0.2" stroke-miterlimit="10"/>
<path d="M63.68 13H62.91V7.74H61.23V7H65.35V7.74H63.67V13H63.68Z" fill="white" stroke="white" stroke-width="0.2" stroke-miterlimit="10"/>
<path d="M70.65 7L68.38 12.06C68.07 12.77 67.6 13.13 66.98 13.13C66.8 13.13 66.6 13.09 66.38 13L66.58 12.29C66.71 12.36 66.84 12.4 66.98 12.4C67.16 12.4 67.3 12.37 67.4 12.3C67.5 12.23 67.59 12.1 67.67 11.92L67.89 11.44L65.87 7H66.78L68.26 10.44H68.29L69.74 7H70.65Z" fill="white" stroke="white" stroke-width="0.2" stroke-miterlimit="10"/>
<path d="M71.52 13V7H75.86V13H75.09V7.74H72.29V13H71.52Z" fill="white" stroke="white" stroke-width="0.2" stroke-miterlimit="10"/>
<path d="M77.23 13V7H78V9.57H81V7H81.77V13H81V10.29H78V13H77.23Z" fill="white" stroke="white" stroke-width="0.2" stroke-miterlimit="10"/>
<path d="M88.06 12.22C87.47 12.83 86.74 13.13 85.86 13.13C84.98 13.13 84.25 12.83 83.66 12.22C83.07 11.61 82.78 10.87 82.78 9.99999C82.78 9.12999 83.07 8.37999 83.66 7.77999C84.25 7.16999 84.98 6.87 85.86 6.87C86.73 6.87 87.46 7.16999 88.06 7.77999C88.65 8.38999 88.95 9.12999 88.95 9.99999C88.94 10.88 88.65 11.62 88.06 12.22ZM84.23 11.72C84.67 12.17 85.22 12.39 85.86 12.39C86.5 12.39 87.05 12.17 87.49 11.72C87.93 11.27 88.16 10.7 88.16 9.99999C88.16 9.29999 87.94 8.73 87.49 8.27999C87.05 7.82999 86.5 7.60999 85.86 7.60999C85.22 7.60999 84.67 7.82999 84.23 8.27999C83.79 8.73 83.56 9.29999 83.56 9.99999C83.56 10.7 83.78 11.27 84.23 11.72Z" fill="white" stroke="white" stroke-width="0.2" stroke-miterlimit="10"/>
<path d="M92.09 13V7H94.26C94.73 7 95.14 7.16 95.48 7.46C95.82 7.77 96 8.16 96 8.63C96 8.92 95.93 9.17 95.78 9.38C95.63 9.6 95.44 9.76 95.19 9.87V9.9C95.49 10 95.73 10.17 95.92 10.42C96.11 10.67 96.21 10.95 96.21 11.28C96.21 11.77 96.03 12.18 95.67 12.5C95.31 12.82 94.88 12.99 94.39 12.99H92.09V13ZM92.86 9.57H94.26C94.55 9.57 94.78 9.47 94.96 9.28C95.14 9.09 95.22 8.88 95.22 8.65C95.22 8.42 95.14 8.21 94.96 8.02C94.79 7.83 94.57 7.73 94.29 7.73H92.86V9.57ZM92.86 12.26H94.41C94.71 12.26 94.95 12.16 95.13 11.95C95.31 11.74 95.41 11.52 95.41 11.27C95.41 11.02 95.32 10.8 95.12 10.6C94.93 10.4 94.68 10.29 94.37 10.29H92.85V12.26H92.86Z" fill="white" stroke="white" stroke-width="0.2" stroke-miterlimit="10"/>
<defs>
<linearGradient id="paint0_linear" x1="21.7997" y1="8.70967" x2="5.01731" y2="25.4921" gradientUnits="userSpaceOnUse">
<stop stop-color="#00A0FF"/>
<stop offset="0.00657445" stop-color="#00A1FF"/>
<stop offset="0.2601" stop-color="#00BEFF"/>
<stop offset="0.5122" stop-color="#00D2FF"/>
<stop offset="0.7604" stop-color="#00DFFF"/>
<stop offset="1" stop-color="#00E3FF"/>
</linearGradient>
<linearGradient id="paint1_linear" x1="33.8344" y1="20.0014" x2="9.6375" y2="20.0014" gradientUnits="userSpaceOnUse">
<stop stop-color="#FFE000"/>
<stop offset="0.4087" stop-color="#FFBD00"/>
<stop offset="0.7754" stop-color="#FFA500"/>
<stop offset="1" stop-color="#FF9C00"/>
</linearGradient>
<linearGradient id="paint2_linear" x1="24.827" y1="22.2961" x2="2.0687" y2="45.0544" gradientUnits="userSpaceOnUse">
<stop stop-color="#FF3A44"/>
<stop offset="1" stop-color="#C31162"/>
</linearGradient>
<linearGradient id="paint3_linear" x1="7.29729" y1="0.176187" x2="17.4599" y2="10.3387" gradientUnits="userSpaceOnUse">
<stop stop-color="#32A071"/>
<stop offset="0.0685" stop-color="#2DA771"/>
<stop offset="0.4762" stop-color="#15CF74"/>
<stop offset="0.8009" stop-color="#06E775"/>
<stop offset="1" stop-color="#00F076"/>
</linearGradient>
</defs>
</svg>
