<svg width="79" height="28" viewBox="0 0 79 28" fill="none" xmlns="http://www.w3.org/2000/svg">
<path d="M10.0822 6.0416C12.085 5.39993 14.2594 5.1666 14.2594 5.1666L14.4883 4.6416C14.4883 4.6416 11.7989 4.93326 10.3683 5.22493C8.82333 5.57493 7.56444 6.0416 7.56444 6.0416C7.56444 6.0416 7.56444 5.74993 7.56444 5.63326C7.56444 5.5166 7.67888 5.57493 7.67888 5.45826C7.67888 5.39993 7.56444 5.39993 7.27833 5.45826C6.99222 5.5166 6.93499 5.6916 6.82055 5.92493C6.70611 6.15826 6.76333 6.27493 6.59166 6.33326C6.41999 6.3916 4.76055 7.03326 3.55888 7.67493C2.35722 8.25826 0.697772 9.1916 0.697772 9.42493C0.697772 9.7166 0.583328 9.59993 0.926661 10.8249C1.26999 12.1083 2.24277 13.0416 2.24277 13.0416C2.24277 13.0416 2.81499 12.2249 2.87222 12.0499C2.92944 11.8749 2.92944 11.9916 2.70055 11.5833C2.47166 11.1749 2.07111 10.4166 1.89944 10.0666C1.78499 9.65826 1.89944 9.7166 2.12833 9.5416C2.35722 9.3666 2.70055 9.1916 3.50166 8.72493C4.30277 8.25827 5.44722 7.73326 5.90499 7.49993C6.47722 7.2666 6.24833 7.49993 6.19111 7.67493C6.13388 7.84993 5.79055 8.60826 4.98944 10.4749C4.18833 12.2833 3.61611 13.3916 3.04388 14.3833C2.47166 15.3749 1.55611 16.4833 1.44166 16.4833C1.32722 16.4833 1.44166 15.8999 1.49888 15.4333C1.55611 14.9083 1.78499 13.5666 1.78499 13.5666C1.78499 13.5666 0.583328 14.1499 0.468884 14.1499C0.411661 14.1499 0.354439 14.3249 0.297217 14.6749C0.239995 15.0249 -0.0461164 17.0083 0.068328 17.5916C0.182773 18.1749 0.182772 18.7583 0.64055 18.6999C1.84222 18.4083 3.90222 14.6166 4.93222 12.3999C5.96222 10.1833 7.10666 7.03327 7.10666 7.03327C7.10666 7.03327 8.02222 6.7416 10.0822 6.0416ZM11.6272 11.8749C11.3983 12.3999 11.055 13.2166 10.8261 13.4499C10.6544 13.6833 10.3111 14.1499 10.2539 13.3916C10.1967 12.7499 10.4828 12.1666 10.7117 11.6999C10.9406 11.2333 11.2839 10.7083 11.5128 10.4166C11.7417 10.1249 11.7417 10.4166 11.7417 10.5333C11.7417 10.6499 11.7989 10.7666 11.8561 10.7083C11.9133 10.6499 12.3711 10.4166 12.4283 10.2416C12.4856 10.0666 12.4856 9.48326 12.4856 9.48326C12.4856 9.48326 12.5428 9.0166 11.7989 9.30826C10.9405 9.65827 10.3683 10.5916 10.025 11.2333C9.62444 11.8749 9.45277 12.8083 9.45277 12.8083C9.45277 12.8083 9.05222 13.2166 8.88055 13.3916C8.70888 13.5666 8.42277 13.9166 8.13666 13.9749C7.79333 14.0916 7.85055 13.9166 7.85055 13.6833C7.85055 13.4499 7.965 13.0999 8.07944 12.7499C8.19388 12.3416 8.82333 10.2416 9.05222 9.59993C9.28111 8.95826 9.91055 6.85826 9.91055 6.85826C9.91055 6.85826 8.93777 7.20826 8.88055 7.20826C8.82333 7.20826 8.76611 7.03326 8.65166 7.38326C8.53722 7.73326 7.85055 9.8916 7.39277 11.2916C6.93499 12.6916 6.64888 13.4499 6.70611 14.4416C6.76333 14.9083 7.16388 15.2583 7.27833 15.2583C7.45 15.2583 7.79333 15.0249 7.96499 14.8499C8.13666 14.6749 8.93777 13.9166 9.16666 13.6833C9.39555 13.4499 9.45277 13.4499 9.51 13.5666C9.56722 13.6833 9.45277 13.9749 9.85333 14.3249C10.1967 14.7333 10.9406 14.3833 11.3983 14.0333C11.9133 13.7416 12.3139 12.7499 12.6572 12.1083C12.9433 11.4083 13.0006 10.5916 13.0006 10.5916C13.0006 10.5916 12.1994 10.9999 12.085 11.0583C11.9133 11.1166 11.8561 11.4083 11.6272 11.8749ZM50.0233 3.12493C50.0233 3.0666 49.9661 2.94993 49.5656 3.4166C49.165 3.88326 48.3639 4.69993 47.9633 4.9916C47.5628 5.3416 47.7917 4.8166 48.0206 4.2916C48.2494 3.70826 49.1078 2.3666 49.1078 2.24993C49.1078 2.13326 48.2494 2.13326 48.135 2.1916C48.0206 2.24993 47.9061 2.48326 47.62 2.83326C47.3911 3.18326 46.4756 4.34993 46.2467 4.52493C45.9606 4.69993 46.1322 4.52493 46.2467 4.05826C46.3611 3.5916 46.7044 2.65826 46.8189 2.3666C46.9333 2.07493 46.8761 2.07493 46.7044 2.13326C46.5328 2.1916 45.8461 2.42493 45.7317 2.59993C45.6744 2.77493 45.1594 3.53326 44.5872 4.23326C44.015 4.93326 43.5 5.63326 43.2139 5.80826C42.8706 6.0416 43.0422 5.57493 43.1567 5.22493C43.3283 4.75826 43.5572 4.52493 43.3283 4.58326C43.2139 4.6416 42.9278 4.69993 42.7561 4.75826C42.5272 4.8166 42.47 4.93326 42.4128 5.10826C42.3556 5.22493 42.1267 5.6916 41.955 5.80826C41.7833 5.92493 40.925 6.62493 40.6389 6.79993C40.3528 6.97493 40.41 6.79993 40.4672 6.50826C40.5244 6.2166 41.0967 4.69993 41.1539 4.58326C41.2111 4.40826 41.3828 4.1166 41.2683 4.1166C41.2683 4.05826 40.6389 3.99993 40.6389 3.99993C40.6389 3.99993 40.6961 3.4166 40.6961 3.35826C40.6961 3.29993 40.6961 2.77493 40.3528 2.83326C40.0094 2.94993 39.6661 3.18326 38.865 3.82493C38.0639 4.4666 37.2628 6.0416 37.1483 6.33326C37.0339 6.50826 36.1756 7.38326 35.7178 7.73326C35.26 8.08326 35.8894 6.7416 36.1183 6.15826C36.3472 5.57493 36.805 4.40826 36.9194 4.23326C36.9767 4.05826 36.9767 3.99993 36.4617 4.05826C35.9467 4.1166 35.775 4.40826 35.4317 4.87493C35.1456 5.39993 34.9739 5.8666 34.9739 5.8666C34.9739 5.8666 34.8022 5.8666 34.6306 5.92493C34.4589 5.98326 34.23 6.15826 34.2872 5.80826C34.3444 5.45826 34.745 4.23326 34.745 4.23326C34.745 4.23326 34.1156 4.2916 33.8867 4.34993C33.6578 4.40826 33.6006 4.87493 33.6006 4.87493H33.3717C33.3717 4.87493 33.2 4.93326 32.6278 5.39993C32.0556 5.8666 31.0828 6.79993 31.0828 6.79993C31.0828 6.79993 31.14 6.62493 31.0256 7.03327C30.9111 7.4416 30.7967 7.7916 30.4533 8.37493C30.1672 8.95826 29.7667 9.48327 29.4806 9.65827C29.1944 9.83327 29.08 9.65827 29.08 9.3666C29.08 9.07493 29.1372 8.78327 29.3661 8.1416C29.595 7.55827 30.1672 6.68326 30.4533 6.33326C30.6822 5.92493 30.7967 6.15826 30.7967 6.27493C30.7967 6.3916 30.8539 6.62493 30.8539 6.62493L31.655 6.0416C31.655 6.0416 31.655 5.45826 31.5978 5.28326C31.5406 5.10826 31.4833 4.9916 30.7967 5.1666C30.1672 5.3416 29.3661 6.33326 29.0228 6.9166C28.6222 7.49993 28.4506 8.25826 28.4506 8.25826C28.4506 8.25826 28.2789 8.43327 28.05 8.72493C27.8211 9.0166 26.9056 10.0083 26.7339 10.1249C26.5622 10.2416 26.505 10.0083 26.3333 9.59993C26.0472 8.78327 25.99 8.02493 25.99 8.02493C25.99 8.02493 26.2761 7.6166 26.5622 7.38326C26.7911 7.14993 27.4206 6.62493 27.7067 6.33326C27.9928 6.09993 28.05 6.33326 28.1072 6.44993C28.1644 6.5666 28.1072 6.97493 28.5078 6.5666C28.8511 6.15826 28.9656 5.45826 29.0228 5.1666C29.0228 4.93326 28.8511 4.87493 28.6222 4.93326C28.3933 4.9916 28.05 5.28326 27.4778 5.6916C26.9056 6.15826 26.1044 7.32493 25.9328 7.4416C25.7039 7.6166 25.8756 7.20826 25.9328 6.97493C25.99 6.7416 26.3906 5.45826 26.3906 5.45826C26.3906 5.45826 26.5622 4.9916 26.3906 4.9916C26.2189 4.9916 25.6467 5.22493 25.4178 5.28326C25.1889 5.3416 25.1317 5.74993 25.1317 5.74993C25.1317 5.74993 24.7883 7.14993 24.5594 8.08326C24.3878 8.6666 24.2161 9.07493 24.2161 9.07493C24.2161 9.07493 23.1861 10.1249 22.8428 10.4166C22.5567 10.6499 22.6711 10.1249 22.8428 9.77493C23.0144 9.3666 23.4722 8.1416 23.4722 8.1416C23.4722 8.1416 22.6139 8.02493 22.7283 7.7916C22.8428 7.55826 22.7283 6.9166 22.6711 6.85826C22.6139 6.79993 22.7856 6.62493 21.8128 7.0916C20.84 7.55826 20.0389 8.95827 19.81 9.3666C19.5811 9.77493 19.5239 10.0666 19.295 10.1833C19.0661 10.2999 18.4367 10.7666 18.4367 10.7666C18.4367 10.7666 17.8644 11.1166 18.0361 10.7666C18.2078 10.4166 18.0361 9.7166 17.75 9.42493C17.4639 9.1916 17.1778 9.1916 17.1778 9.1916C17.1778 9.1916 17.75 8.60826 18.1506 8.08326C18.78 7.2666 18.8944 5.74993 18.6656 5.74993C18.265 5.74993 17.5211 6.27493 16.8917 6.85826C16.2622 7.4416 15.4611 8.54993 15.4611 8.54993C15.4611 8.54993 15.4611 9.0166 15.5183 8.95826C15.5756 8.89993 15.7472 8.6666 16.0906 8.37493C16.4339 8.02493 17.1206 7.4416 17.3494 7.2666C17.5211 7.14993 17.75 6.85827 17.6356 7.32493C17.5211 7.7916 17.0633 8.43326 16.6628 8.89993C16.2622 9.42493 15.3467 10.3583 15.3467 10.3583C15.3467 10.3583 15.2894 10.3583 15.2894 10.5916C15.2894 10.8249 15.4039 10.8249 15.4039 10.8249C15.4039 10.8249 15.4039 10.8833 15.5756 10.7083C15.7472 10.5333 16.205 10.1833 16.4911 10.2999C16.7772 10.4166 16.8344 11.0583 16.8344 11.4083C16.8344 11.6999 16.72 12.2833 16.6628 12.3999V12.4583C16.6628 12.4583 16.6628 12.4583 16.6628 12.3999C16.6628 12.3999 16.5483 12.4583 16.205 12.7499C15.6328 13.2749 15.0606 14.1499 14.6028 14.8499C14.145 15.5499 14.0306 16.0749 13.9733 16.5999C13.9161 17.1833 13.9733 17.4166 13.9733 17.4166C13.9733 17.4166 13.9733 17.5333 14.3739 17.2416C15.0033 16.7749 16.3194 15.3749 17.0061 14.3249C17.6356 13.3333 17.9789 11.7583 17.9789 11.7583C17.9789 11.7583 18.0361 11.6416 18.1506 11.5249C18.265 11.4083 18.9517 10.8833 19.1806 10.6499C19.4094 10.4749 19.4667 10.5333 19.4094 10.7083C19.3522 10.8833 19.4094 11.5249 19.5239 11.8166C19.6383 12.1083 19.9244 12.1666 20.2106 11.9916C20.5539 11.8166 21.2406 11.1749 21.4122 10.9999C21.5839 10.8833 21.6411 10.8249 21.6411 10.9416C21.6411 11.0583 21.6983 11.3499 21.8128 11.5249C21.9272 11.7583 22.2706 11.6416 22.6139 11.3499C23.0144 11.0583 23.93 9.94993 24.0444 9.77493C24.2161 9.5416 24.2733 9.65827 24.1589 9.8916C24.0444 10.1249 23.8728 10.8249 23.8728 10.9416C23.8728 11.0583 23.8728 11.1166 23.9872 11.1749C24.1017 11.2333 24.7311 11.4666 24.7311 11.4666C24.7311 11.4666 24.8456 11.3499 24.9028 11.1749C24.96 10.9999 25.2461 9.83326 25.3606 9.48326C25.4178 9.13326 25.5894 9.24993 25.6467 9.83326C25.7039 10.4166 26.1617 10.9416 26.2761 10.9999C26.4478 11.0583 26.7339 10.8249 27.02 10.5916C27.3633 10.3583 28.1644 9.48326 28.3933 9.13326C28.6222 8.78326 28.6222 9.13326 28.6222 9.13326C28.6222 9.13326 28.6222 9.5416 28.7367 9.77493C28.8511 10.0666 28.9083 10.3583 29.8811 10.0666C30.8539 9.77493 31.5978 8.54993 31.8839 7.9666C32.2272 7.32493 32.3417 6.33326 32.3417 6.33326C32.3417 6.33326 32.9139 5.80826 33.3144 5.57493C33.715 5.28326 33.715 5.6916 33.6578 5.74993C33.6006 5.80826 33.4861 6.33326 33.4289 6.50826C33.3717 6.68326 33.3144 6.79993 33.1428 6.9166C32.9711 7.03326 32.8567 7.0916 32.7422 7.32493C32.685 7.55827 32.9711 7.67493 32.9711 7.67493C32.9711 7.67493 32.7994 8.08327 32.6278 8.4916C32.4561 8.95827 32.17 9.48326 32.2272 9.5416C32.2844 9.5416 32.4561 9.48326 32.685 9.42493C32.8567 9.3666 33.4861 9.1916 33.6006 8.95826C33.715 8.72493 34.1728 7.20827 34.23 7.03327C34.2872 6.85827 34.4589 6.7416 34.745 6.62493C34.9739 6.5666 35.2028 6.44993 35.0311 6.79993C34.8594 7.14993 34.745 7.7916 34.6878 8.3166C34.6306 8.89993 34.9167 9.13326 35.0883 9.13326C35.26 9.07493 35.6606 8.78326 35.9467 8.54993C36.2328 8.3166 36.9767 7.49993 37.0911 7.32493C37.2056 7.20827 37.2628 7.20826 37.2628 7.49993C37.2628 7.7916 37.2628 8.02493 37.3772 8.19993C37.4917 8.37493 37.5489 8.54993 38.0067 8.37493C38.4644 8.19993 39.0367 7.55827 39.2656 7.32493C39.4372 7.0916 39.4372 7.20826 39.4944 7.4416C39.5517 7.67493 39.5517 8.02493 39.8378 8.02493C40.1239 8.02493 40.5244 7.84993 40.925 7.6166C41.3256 7.38327 41.955 6.79993 42.1267 6.62493C42.2983 6.44993 42.3556 6.50826 42.3556 6.68326C42.3556 6.85826 42.3556 7.03326 42.47 7.14993C42.5844 7.20826 42.985 6.9166 43.4428 6.5666C43.9578 6.15826 44.9878 4.93326 45.1022 4.8166C45.2167 4.69993 45.2739 4.87493 45.2167 5.10826C45.1594 5.3416 45.1022 5.39993 45.045 5.92493C44.9878 6.50826 45.3311 6.27493 45.6172 6.15826C45.8461 6.0416 46.7044 5.28326 46.9333 5.04993C47.105 4.8166 47.105 5.1666 47.105 5.1666C47.105 5.1666 46.9906 5.39993 46.9333 5.6916C46.8761 5.98326 46.9906 6.33326 47.2767 6.33326C47.5056 6.33326 47.8489 6.09993 48.5928 5.63326C49.3367 5.10826 50.4811 3.70826 50.4811 3.70826C50.4811 3.70826 50.0233 3.18326 50.0233 3.12493ZM15.8617 14.5583C15.7472 14.7333 15.5756 14.9083 15.4611 14.8499C15.3467 14.7916 15.4611 14.6166 15.6328 14.3833C15.8044 14.1499 16.0333 13.7999 16.0906 13.9166C16.0333 14.0916 15.9761 14.3833 15.8617 14.5583ZM21.6983 9.65827C21.355 10.1249 20.8972 10.5333 20.7828 10.6499C20.6683 10.7083 20.5539 10.6499 20.6111 10.3583C20.6683 10.0666 20.7256 9.77493 21.0117 9.1916C21.2978 8.60826 21.6411 8.08326 21.87 7.84993C22.0989 7.6166 22.2706 7.73326 22.2133 7.9666C22.1561 8.19993 22.0989 8.3166 22.0989 8.3166H22.1561C22.1561 8.3166 22.4422 8.02493 22.4422 8.25826C22.385 8.4916 21.9272 9.1916 21.6983 9.65827ZM40.1239 4.69993C39.9522 5.10826 39.38 6.0416 39.0367 6.3916C38.6933 6.7416 38.1211 7.32493 38.2928 6.68326C38.4644 6.0416 38.4644 5.8666 38.7506 5.39993C38.9794 4.9916 39.0367 4.87493 39.3228 4.58326C39.5517 4.23326 39.895 3.9416 39.895 4.05826C39.895 4.17493 39.8378 4.6416 39.8378 4.6416H39.9522C39.895 4.6416 40.2383 4.34993 40.1239 4.69993Z" fill="#A51318"/>
<path d="M43.5 15.7834C43.5 15.725 43.5 15.7834 43.5 15.7834V15.7834ZM36.1183 14.2084L35.26 14.4417V15.6667L36.1755 15.4334V18.8167L37.6061 18.525V10.7667L36.1183 11V14.2084ZM41.2111 13.275L40.3528 13.45V14.7334L41.2683 14.5V17.8834L42.6989 17.5917V9.77504L41.2111 10.0084V13.275ZM38.4072 18.4667L39.895 18.175V10.3L38.4072 10.5334V18.4667ZM28.2789 13.1584C28.1072 12.5167 27.0772 12.6334 26.7339 12.6917C26.4478 12.75 25.475 12.925 25.0172 13.1584C24.5594 13.3917 24.6739 13.275 24.3878 13.6834C24.0444 14.0334 24.0444 15.4917 24.0444 15.4917V19.5167C24.0444 19.575 24.0444 19.6917 24.1016 20.1C24.1589 20.975 24.7311 20.975 25.0744 20.975C25.475 20.975 26.8483 20.6834 27.7066 20.3917C28.4505 20.1 28.3361 18.2917 28.3361 18.2917V13.9167C28.3933 13.9167 28.4505 13.8 28.2789 13.1584ZM26.7911 19.4584C26.6194 19.575 26.2761 19.6917 26.1616 19.6917C25.99 19.6917 25.6466 19.6917 25.5894 19.5167C25.475 19.3417 25.5322 15.0834 25.5322 15.0834C25.5322 15.0834 25.475 14.2084 25.8183 14.0917C26.1616 13.975 26.6194 13.8584 26.6766 13.9167C26.7339 13.975 26.9055 14.0334 26.9055 14.7334C26.9055 15.4334 26.9055 18.4667 26.9055 18.4667C26.9055 18.4667 27.02 19.3417 26.7911 19.4584ZM24.0444 19.5167C24.0444 19.4 24.0444 19.5167 24.0444 19.5167V19.5167ZM49.8516 8.37504L48.3639 8.60837V16.4834L49.8516 16.1917V8.37504ZM33.3144 19.4L34.8022 19.05V11.2334L33.3144 11.4667V19.4ZM32.5133 16.1334V14.85L31.0255 15.1417V16.425L32.5133 16.1334ZM29.1372 20.2167L32.685 19.5167V18.2917L30.625 18.7V13.275L32.685 12.8084V11.5834L29.1372 12.225V20.2167ZM23.1861 17.0667C23.5294 16.8917 23.5294 16.0167 23.5294 15.725C23.5294 15.4334 23.5294 14.5 23.3578 13.975C23.1861 13.3917 21.9272 13.6834 21.9272 13.6834L19.4094 14.2667V22.1417C19.4094 22.1417 21.1261 21.85 22.2705 21.5584C23.3578 21.325 23.4722 20.5084 23.5294 20.275C23.5866 20.0417 23.5866 19.6917 23.5866 18.7C23.5866 17.825 23.415 17.65 23.3578 17.475C23.2433 17.3 22.7855 17.3 22.7855 17.3V17.125C22.8428 17.2417 22.9 17.1834 23.1861 17.0667ZM21.7555 20.3917C21.355 20.5084 20.84 20.5667 20.84 20.5667V15.0834C20.84 15.0834 21.1261 14.9084 21.4122 14.9084C21.6983 14.85 22.0416 14.675 22.0416 15.4334C22.0989 16.075 22.0989 16.6 22.0416 16.7167C21.9844 16.8917 21.7555 17.0667 21.4122 17.1834C21.2978 17.1834 21.2978 17.2417 21.2978 17.2417V18.2917C21.2978 18.2917 21.4122 18.175 21.5839 18.175C21.7555 18.175 22.0989 18.0584 22.1561 18.8167C22.1561 19.575 22.1561 20.3334 21.7555 20.3917ZM63.5278 23.1917L65.0155 22.8417V14.9667L63.5278 15.2V23.1917ZM62.6122 19.925V18.6417L61.1244 18.9334V20.2167L62.6122 19.925ZM59.2933 24.0667L62.8411 23.3667V22.0834L60.7811 22.4917V17.0667L62.8411 16.6V15.375L59.2933 16.0167V24.0667ZM55.6311 21.15H55.5166L54.4866 17.0084L52.7128 17.3V25.175L54.0861 24.8834V20.6834H54.2005L55.1161 24.7667L56.1461 24.5334L57.0044 20.1584H57.1189V24.4167L58.5494 24.125V16.1917L56.7755 16.5417L55.6311 21.15ZM66.2744 18L65.4161 18.175V19.4584L66.3316 19.225V22.6084L67.7622 22.3167V14.5L66.2744 14.7917V18ZM71.4816 13.7417L70.1083 18.2334H69.9366V14.0334L68.5633 14.325V22.2L70.1083 21.9084L71.3672 17.7084H71.5389V21.7917L72.9122 21.5V13.45L71.4816 13.7417ZM42.6416 22.9C42.985 22.725 42.985 21.85 42.985 21.5584C42.985 21.2667 42.985 20.3334 42.8133 19.8084C42.6416 19.225 41.3828 19.5167 41.3828 19.5167L38.865 20.1V27.9167C38.865 27.9167 40.5816 27.625 41.7261 27.3334C42.8133 27.1 42.9278 26.2834 42.985 26.05C43.0422 25.8167 43.0422 25.4667 43.0422 24.475C43.0422 23.6 42.8705 23.425 42.8133 23.25C42.7561 23.075 42.2411 23.075 42.2411 23.075V22.9C42.1839 23.075 42.2983 23.0167 42.6416 22.9ZM41.2111 26.2834C40.8105 26.4 40.2955 26.4584 40.2955 26.4584V20.9167C40.2955 20.9167 40.5816 20.7417 40.8678 20.7417C41.1539 20.7417 41.4972 20.5084 41.4972 21.2667C41.5544 21.9084 41.5544 22.4334 41.4972 22.55C41.44 22.725 41.2111 22.9 40.8678 23.0167C40.7533 23.0167 40.7533 23.075 40.7533 23.075V24.0667C40.7533 24.0667 40.8678 23.95 41.0394 23.95C41.2111 23.95 41.5544 23.8334 41.6116 24.5917C41.5544 25.4084 41.6116 26.225 41.2111 26.2834ZM55.86 15.0834C56.6039 14.7334 56.4894 12.9834 56.4894 12.9834V8.60837C56.4894 8.60837 56.5466 8.4917 56.375 7.85004C56.2033 7.20837 55.1733 7.32504 54.83 7.38337C54.5439 7.4417 53.5711 7.6167 53.1133 7.85004C52.5983 8.08337 52.77 7.9667 52.4839 8.37504C52.1405 8.78337 52.1405 10.1834 52.1405 10.1834V14.2084C52.1405 14.2667 52.1405 14.3834 52.1978 14.7917C52.255 15.6667 52.8272 15.6667 53.1705 15.6667C53.6283 15.6084 55.0589 15.4334 55.86 15.0834ZM53.9716 8.6667C54.3722 8.55004 54.7728 8.43337 54.83 8.4917C54.8872 8.55004 55.0589 8.60837 55.0589 9.30837C55.0589 10.0084 55.0589 13.0417 55.0589 13.0417C55.0589 13.0417 55.1161 13.9167 54.8872 14.0334C54.7155 14.15 54.3722 14.2667 54.2578 14.2667C54.1433 14.2667 53.7428 14.2667 53.6855 14.0917C53.5711 13.9167 53.6283 9.65837 53.6283 9.65837C53.6283 9.65837 53.6283 8.8417 53.9716 8.6667ZM52.255 14.15C52.255 14.0917 52.255 14.15 52.255 14.15V14.15ZM47.6772 9.42504C47.5055 8.78337 46.4755 8.90004 46.1322 8.95837C45.8461 9.0167 44.8733 9.1917 44.4155 9.42504C43.9005 9.65837 44.0722 9.5417 43.7861 9.95004C43.5 10.3584 43.5 11.7584 43.5 11.7584V15.7834C43.5 15.8417 43.5 15.9584 43.5572 16.3667C43.6144 17.2417 44.1866 17.2417 44.53 17.2417C44.9305 17.2417 46.3039 16.95 47.1622 16.6584C47.9061 16.3084 47.7916 14.5584 47.7916 14.5584V10.1834C47.7916 10.1834 47.8489 10.0667 47.6772 9.42504ZM46.1894 15.725C46.0178 15.8417 45.6744 15.9584 45.56 15.9584C45.3883 15.9584 45.045 15.9584 44.9878 15.7834C44.8733 15.6084 44.9305 11.35 44.9305 11.35C44.9305 11.35 44.8733 10.475 45.2166 10.3584C45.6172 10.2417 46.0178 10.125 46.075 10.1834C46.1894 10.2417 46.3039 10.3 46.3039 11C46.3039 11.7 46.3039 14.7334 46.3039 14.7334C46.3039 14.7334 46.4183 15.6084 46.1894 15.725ZM51.74 21.9667V20.6834L50.2522 20.975V22.2584L51.74 21.9667ZM46.0178 18.5834C45.7316 18.6417 43.6716 19.1084 43.6716 19.1084V27.1L45.1594 26.8084V19.9834C45.1594 19.9834 45.6172 19.8084 46.0178 19.8084C46.4183 19.8084 46.4755 20.3334 46.4755 21.5C46.4755 22.6667 46.2466 22.725 46.1322 22.7834C46.0178 22.8417 45.56 22.9584 45.56 22.9584V24.0667C45.56 24.0667 46.7616 23.775 47.2766 23.4834C47.7916 23.1917 47.8489 22.2584 47.8489 21.9667C47.8489 21.675 47.8489 20.2167 47.7344 19.1667C47.62 18.1167 46.3039 18.525 46.0178 18.5834ZM48.4211 26.1084L51.9689 25.4084V24.1834L49.9089 24.5917V19.1667L51.9689 18.7V17.4167L48.4211 18.0584C48.4211 18.1167 48.4211 26.1084 48.4211 26.1084ZM51.7972 8.02504L50.3094 8.25837V9.48337L51.7972 9.25004V8.02504Z" fill="#563216"/>
<path d="M60.4378 8.1999V5.5749L59.465 5.80824V5.10824L62.1544 4.5249V5.16657L61.1817 5.3999V8.0249L60.4378 8.1999Z" fill="#930606"/>
<path d="M62.6694 7.67499V4.34999L63.9855 4.05833C64.386 3.99999 64.6722 3.99999 64.9011 4.17499C65.1299 4.34999 65.2444 4.58333 65.2444 4.93333C65.2444 5.28333 65.1299 5.63333 64.9011 5.86666C64.6722 6.09999 64.3288 6.27499 63.9855 6.39166L63.4705 6.50833V7.49999L62.6694 7.67499ZM63.4133 5.92499L63.9855 5.80833C64.1572 5.74999 64.3288 5.69166 64.386 5.57499C64.5005 5.45833 64.5577 5.34166 64.5577 5.16666C64.5577 4.99166 64.5005 4.87499 64.386 4.81666C64.2716 4.75832 64.1572 4.75833 63.9855 4.75833L63.4133 4.87499V5.92499Z" fill="#930606"/>
<path d="M65.7595 7.03335V3.70835L68.22 3.18335V3.82502L66.5034 4.23335V4.93335L68.0484 4.58335V5.16668L66.5034 5.51668V6.21668L68.2772 5.80835V6.45002L65.7595 7.03335Z" fill="#930606"/>
<path d="M69.6505 6.15815V3.53315L68.6777 3.76649V3.06649L71.3671 2.48315V3.18315L70.3944 3.41649V6.04149L69.6505 6.15815Z" fill="#930606"/>
<path d="M74.6861 1.72485V5.04985L73.9994 5.22485V3.06652L72.5688 5.57485L71.8822 5.74985V2.36652L72.5688 2.19152V4.34985L73.9994 1.84152L74.6861 1.72485Z" fill="#930606"/>
<path d="M78.2911 0.966569V4.29157L77.6044 4.46657V2.2499L76.1739 4.75823L75.4872 4.93324V1.5499L76.1739 1.3749V3.53324L77.6044 1.0249L78.2911 0.966569ZM77.4327 0.733236C77.3183 0.908236 77.1466 0.966569 76.9177 1.0249C76.6888 1.08324 76.5172 1.0249 76.4027 0.966569C76.2883 0.849902 76.1739 0.733236 76.1739 0.499902L76.5744 0.324902C76.6316 0.499902 76.7461 0.616569 76.9177 0.558235C77.0894 0.499902 77.2038 0.383236 77.2611 0.149902H77.6616C77.6616 0.383236 77.5472 0.558236 77.4327 0.733236Z" fill="#930606"/>
<path d="M61.1816 12.4583C60.7239 12.575 60.3233 12.4583 59.98 12.225C59.6366 11.9917 59.5222 11.5833 59.5222 11.1167C59.5222 10.65 59.6939 10.1833 59.98 9.77498C60.3233 9.36665 60.7239 9.13332 61.1816 9.01665C61.4677 8.95832 61.6966 8.95832 61.8683 9.01665C62.04 9.07498 62.2689 9.13332 62.4405 9.30832L62.04 9.89165C61.9255 9.77498 61.7539 9.71665 61.6394 9.71665C61.525 9.65832 61.3533 9.71665 61.1816 9.71665C60.8955 9.77498 60.6666 9.94998 60.495 10.1833C60.3233 10.4167 60.2089 10.7083 60.2089 11C60.2089 11.2917 60.3233 11.525 60.495 11.7C60.6666 11.875 60.8955 11.9333 61.1816 11.875C61.3533 11.8167 61.525 11.7583 61.6394 11.7C61.7539 11.5833 61.9255 11.4667 62.04 11.2917L62.4977 11.7C62.3261 11.9333 62.1544 12.1083 61.9255 12.225C61.7539 12.2833 61.4677 12.3417 61.1816 12.4583Z" fill="#930606"/>
<path d="M63.0701 11.9333V8.6666L65.5306 8.1416V8.78327L63.814 9.1916V9.83327L65.359 9.48327V10.1249L63.814 10.4749V11.1749L65.5879 10.7666V11.4083L63.0701 11.9333Z" fill="#930606"/>
<path d="M67.3617 7.67479C67.705 7.61646 67.9911 7.61646 68.22 7.73312C68.4489 7.84979 68.5633 8.02479 68.5633 8.31646C68.5633 8.66646 68.3917 8.95812 68.0483 9.19146C68.4489 9.24979 68.6778 9.42479 68.6778 9.83312C68.6778 10.1248 68.5633 10.3581 68.3345 10.6498C68.1056 10.8831 67.8195 11.0581 67.4189 11.1165C67.0756 11.1748 66.7895 11.2331 66.5606 11.1748C66.3317 11.1165 66.16 11.0581 65.9311 10.8831L66.3317 10.2998C66.6178 10.5331 66.9611 10.5915 67.3617 10.4748C67.5333 10.4165 67.6478 10.3581 67.7622 10.2998C67.8767 10.2415 67.9339 10.1248 67.9339 9.94979C67.9339 9.83312 67.8767 9.71646 67.7622 9.71646C67.6478 9.65812 67.4761 9.65812 67.3045 9.71646L66.9039 9.77479V9.19146L67.2472 9.13312C67.6478 9.07479 67.8195 8.89979 67.8195 8.60812C67.8195 8.49146 67.7622 8.43312 67.6478 8.37479C67.5333 8.31646 67.4189 8.31646 67.2472 8.37479C66.9039 8.43312 66.6178 8.66646 66.3889 8.95812L65.9883 8.54979C66.3889 8.02479 66.8467 7.79146 67.3617 7.67479Z" fill="#930606"/>
<path d="M72.0538 9.54167C71.7105 9.95 71.3099 10.1833 70.7949 10.3C70.2799 10.4167 69.8794 10.3583 69.5361 10.0667C69.1927 9.83334 69.0211 9.425 69.0211 8.95834C69.0211 8.49167 69.1927 8.025 69.5361 7.61667C69.8794 7.20834 70.2799 6.975 70.7949 6.85834C71.3099 6.74167 71.7105 6.8 72.0538 7.09167C72.3972 7.325 72.5688 7.73334 72.5688 8.2C72.5688 8.725 72.3972 9.13334 72.0538 9.54167ZM70.1083 9.48334C70.2799 9.65834 70.5088 9.71667 70.7949 9.65834C71.0811 9.6 71.3099 9.425 71.4816 9.19167C71.6533 8.95834 71.7677 8.66667 71.7677 8.375C71.7677 8.08334 71.6533 7.85 71.4816 7.675C71.3099 7.5 71.0811 7.44167 70.7949 7.5C70.5088 7.55834 70.2799 7.73334 70.1083 7.96667C69.9366 8.2 69.8222 8.49167 69.8222 8.78334C69.8222 9.13334 69.9366 9.30834 70.1083 9.48334Z" fill="#930606"/>
<path d="M73.1983 9.71667V6.39167L73.9422 6.21667V7.5L75.2583 7.20833V5.925L75.945 5.75V9.075L75.2583 9.25V7.90833L73.9422 8.2V9.54167L73.1983 9.71667Z" fill="#930606"/>
</svg>
