<svg width="18" height="18" viewBox="0 0 18 18" fill="none" xmlns="http://www.w3.org/2000/svg">
<path d="M9 1.6C11.4 1.6 11.7 1.6 12.6 1.7C13.5 1.7 14 1.9 14.3 2C14.7 2.2 15 2.4 15.3 2.7C15.6 3 15.8 3.3 16 3.7C16.1 4 16.3 4.5 16.3 5.4C16.3 6.3 16.4 6.6 16.4 9C16.4 11.4 16.4 11.7 16.3 12.6C16.3 13.5 16.1 14 16 14.3C15.8 14.7 15.6 15 15.3 15.3C15 15.6 14.7 15.8 14.3 16C14 16.1 13.5 16.3 12.6 16.3C11.7 16.3 11.4 16.4 9 16.4C6.6 16.4 6.3 16.4 5.4 16.3C4.5 16.3 4 16.1 3.7 16C3.3 15.8 3 15.6 2.7 15.3C2.4 15 2.2 14.7 2 14.3C1.9 14 1.7 13.5 1.7 12.6C1.7 11.7 1.6 11.4 1.6 9C1.6 6.6 1.6 6.3 1.7 5.4C1.7 4.5 1.9 4 2 3.7C2.2 3.3 2.4 3 2.7 2.7C3 2.3 3.3 2.1 3.7 2C4 1.9 4.5 1.7 5.4 1.7C6.3 1.6 6.6 1.6 9 1.6ZM9 0C6.6 0 6.2 2.23517e-08 5.3 0.1C4.3 0.1 3.7 0.3 3.1 0.5C2.5 0.7 2 1 1.5 1.5C1 2 0.7 2.5 0.5 3.1C0.3 3.7 0.1 4.3 0.1 5.3C2.23517e-08 6.2 0 6.6 0 9C0 11.4 2.23517e-08 11.8 0.1 12.7C0.1 13.7 0.3 14.3 0.5 14.9C0.7 15.5 1 16 1.5 16.5C2 17 2.5 17.3 3.1 17.5C3.7 17.7 4.3 17.9 5.3 17.9C6.3 17.9 6.6 18 9 18C11.4 18 11.8 18 12.7 17.9C13.7 17.9 14.3 17.7 14.9 17.5C15.5 17.3 16 17 16.5 16.5C17 16 17.3 15.5 17.5 14.9C17.7 14.3 17.9 13.7 17.9 12.7C17.9 11.7 18 11.4 18 9C18 6.6 18 6.2 17.9 5.3C17.9 4.3 17.7 3.7 17.5 3.1C17.3 2.5 17 2 16.5 1.5C16 1 15.5 0.7 14.9 0.5C14.3 0.3 13.7 0.1 12.7 0.1C11.8 2.23517e-08 11.4 0 9 0Z" fill="#0757A8"/>
<path d="M8.99999 4.3999C6.39999 4.3999 4.39999 6.4999 4.39999 8.9999C4.39999 11.4999 6.49999 13.5999 8.99999 13.5999C11.5 13.5999 13.6 11.4999 13.6 8.9999C13.6 6.4999 11.6 4.3999 8.99999 4.3999ZM8.99999 11.9999C7.29999 11.9999 5.99999 10.6999 5.99999 8.9999C5.99999 7.2999 7.29999 5.9999 8.99999 5.9999C10.7 5.9999 12 7.2999 12 8.9999C12 10.6999 10.7 11.9999 8.99999 11.9999Z" fill="#0757A8"/>
<path d="M13.8 5.3001C14.4075 5.3001 14.9 4.80761 14.9 4.2001C14.9 3.59258 14.4075 3.1001 13.8 3.1001C13.1925 3.1001 12.7 3.59258 12.7 4.2001C12.7 4.80761 13.1925 5.3001 13.8 5.3001Z" fill="#0757A8"/>
</svg>
